<mxfile host="app.diagrams.net" modified="2021-03-10T20:29:11.602Z" agent="5.0 (Windows NT 10.0; Win64; x64) AppleWebKit/537.36 (KHTML, like Gecko) Chrome/89.0.4389.72 Safari/537.36 Edg/89.0.774.45" etag="aNk5QvrxZI8WJO4WGHZD" version="14.4.6" type="github">
  <diagram id="drmVlzkGjKSLTcv6Nahd" name="Page-1">
    <mxGraphModel dx="1026" dy="1131" grid="1" gridSize="10" guides="1" tooltips="1" connect="1" arrows="1" fold="1" page="1" pageScale="1" pageWidth="827" pageHeight="1169" math="0" shadow="0">
      <root>
        <mxCell id="0" />
        <mxCell id="1" parent="0" />
        <mxCell id="io4f-WP2ttxpciB3HJHm-1" value="" style="edgeStyle=orthogonalEdgeStyle;rounded=0;orthogonalLoop=1;jettySize=auto;html=1;" edge="1" parent="1" source="io4f-WP2ttxpciB3HJHm-2">
          <mxGeometry relative="1" as="geometry">
            <mxPoint x="200.00000000000023" y="120" as="targetPoint" />
          </mxGeometry>
        </mxCell>
        <mxCell id="io4f-WP2ttxpciB3HJHm-2" value="def start_light(brightness_hours)" style="shape=mxgraph.flowchart.terminator;strokeWidth=2;gradientColor=none;gradientDirection=north;fontStyle=0;html=1;" vertex="1" parent="1">
          <mxGeometry x="110" y="30" width="180" height="70" as="geometry" />
        </mxCell>
        <mxCell id="io4f-WP2ttxpciB3HJHm-3" value="" style="edgeStyle=orthogonalEdgeStyle;rounded=0;orthogonalLoop=1;jettySize=auto;html=1;" edge="1" parent="1">
          <mxGeometry relative="1" as="geometry">
            <mxPoint x="200.00000000000023" y="180" as="sourcePoint" />
            <mxPoint x="200.00000000000023" y="210" as="targetPoint" />
          </mxGeometry>
        </mxCell>
        <mxCell id="io4f-WP2ttxpciB3HJHm-4" value="&lt;span&gt;time_to_shine = brightness_hours * 60&lt;/span&gt;" style="rounded=0;whiteSpace=wrap;html=1;" vertex="1" parent="1">
          <mxGeometry x="95" y="120" width="210" height="60" as="geometry" />
        </mxCell>
        <mxCell id="io4f-WP2ttxpciB3HJHm-5" value="" style="edgeStyle=orthogonalEdgeStyle;rounded=0;orthogonalLoop=1;jettySize=auto;html=1;" edge="1" parent="1" source="io4f-WP2ttxpciB3HJHm-6" target="io4f-WP2ttxpciB3HJHm-7">
          <mxGeometry relative="1" as="geometry" />
        </mxCell>
        <mxCell id="io4f-WP2ttxpciB3HJHm-6" value="&lt;span&gt;timeout_start = aktuelle Zeit&lt;/span&gt;" style="rounded=0;whiteSpace=wrap;html=1;" vertex="1" parent="1">
          <mxGeometry x="120" y="210" width="160" height="60" as="geometry" />
        </mxCell>
        <mxCell id="io4f-WP2ttxpciB3HJHm-7" value="while time.time() &amp;lt; timeout_start + time_to_shine" style="rhombus;whiteSpace=wrap;html=1;" vertex="1" parent="1">
          <mxGeometry x="40" y="300" width="320" height="170" as="geometry" />
        </mxCell>
      </root>
    </mxGraphModel>
  </diagram>
</mxfile>
